<svg xmlns="http://www.w3.org/2000/svg"
 xmlns:xlink="http://www.w3.org/1999/xlink"
 width="33px" height="31px"  viewBox="0 0 33 31">
<path fill-rule="evenodd"  fill="#ffffff"
 d="M14.348389,2.2805176 C14.348389,2.2805176 14.348389,7.4865723 14.348389,7.4865723 C14.348389,8.191895 13.779602,8.76416 13.078003,8.76416 C10.575623,8.76416 9.214111,11.348145 9.025513,16.447021 C9.025513,16.447021 13.078003,16.447021 13.078003,16.447021 C13.779602,16.447021 14.348389,17.019531 14.348389,17.725098 C14.348389,17.725098 14.348389,28.716797 14.348389,28.716797 C14.348389,29.422607 13.779602,29.995117 13.078003,29.995117 C13.078003,29.995117 2.2729492,29.995117 2.2729492,29.995117 C1.5715332,29.995117 1.003418,29.421387 1.003418,28.716797 C1.003418,28.716797 1.003418,17.725098 1.003418,17.725098 C1.003418,15.281006 1.2478638,13.037109 1.7301025,11.057617 C2.2241821,9.027344 2.9832764,7.251953 3.9848633,5.7802734 C5.015503,4.269043 6.3049316,3.0820312 7.8168945,2.2556152 C9.339294,1.4243164 11.109497,1.0024414 13.078552,1.0024414 C13.779602,1.0024414 14.348389,1.574707 14.348389,2.2805176 ZM30.728088,8.76416 C31.429138,8.76416 31.997437,8.191895 31.997437,7.4865723 C31.997437,7.4865723 31.997437,2.2805176 31.997437,2.2805176 C31.997437,1.574707 31.429138,1.0024414 30.728088,1.0024414 C28.75879,1.0024414 26.98944,1.4243164 25.466064,2.2556152 C23.954468,3.0820312 22.664917,4.269043 21.633667,5.7802734 C20.631775,7.251953 19.872925,9.027344 19.37854,11.058105 C18.897095,13.038818 18.65271,15.281738 18.65271,17.725098 C18.65271,17.725098 18.65271,28.716797 18.65271,28.716797 C18.65271,29.422607 19.22107,29.995117 19.92279,29.995117 C19.92279,29.995117 30.72705,29.995117 30.72705,29.995117 C31.427917,29.995117 31.99701,29.421387 31.99701,28.716797 C31.99701,28.716797 31.99701,17.725098 31.99701,17.725098 C31.99701,17.019531 31.427917,16.447021 30.72705,16.447021 C30.72705,16.447021 26.73236,16.447021 26.73236,16.447021 C26.918945,11.348145 28.259827,8.76416 30.728088,8.76416 Z"/>
</svg>